{"title":"Get Him To The Greek 2010 Unrated BRRip H264 Feel-Free","uid":5841413,"size":2392257581,"categoryP":"video","categoryS":"movies","magnet":"?xt=urn:btih:f3767eaa9d304aa2523478697767682ceb9aaab7&amp;dn=Get+Him+To+The+Greek+2010+Unrated+BRRip+H264+Feel-Free&amp;tr=udp%3A%2F%2Ftracker.openbittorrent.com%3A80&amp;tr=udp%3A%2F%2Fopen.demonii.com%3A1337&amp;tr=udp%3A%2F%2Ftracker.coppersurfer.tk%3A6969&amp;tr=udp%3A%2F%2Fexodus.desync.com%3A6969","seeders":0,"leechers":0,"uploader":"neon","files":-1,"time":1284975757,"description":"Genre:Comedy\nLanguage:English\n &lt;a href=&quot; http://www.imdb.com/title/tt1226229/&quot; rel=&quot;nofollow&quot; target=&quot;_NEW&quot;&gt; http://www.imdb.com/title/tt1226229/&lt;/a&gt;\nSource:BRRip-SpaceHD\n\nAaron Greenberg (Hill) gets things done. The ambitious 23-year-old has exaggerated his way into a dream job just in time for a career-making assignment. His mission: Fly to London and escort a rock god to L.A.s Greek Theatre for the first-stop on a $100-million tour. His warning: Turn your back on him at your own peril. British rocker Aldous Snow (Brand) is both a brilliant musician and walking sex. Weary of yes men and piles of money, the former front man is searching for the meaning of life. But that doesnt mean he cant have a few orgies while he finds it. When he learns his true love is in California, Aldous makes it his quest to win her backright before kick-starting his world domination.\n\nAs the countdown to the concert begins, one intern must navigate a minefield of London drug smuggles, New York City brawls and Vegas lap dances to deliver his charge safe and, sort of, sound. He may have to coax, lie to, enable and party with Aldous, but Aaron will get him to the Greek. \n\n\nGeneral\nComplete name :Get Him To The Greek 2010 Unrated BRRip H264 Feel-Free\nFormat : MPEG-4\nFormat profile : Base Media\nCodec ID : isom\nFile size : 2.23 GiB\nDuration : 1h 53mn\nOverall bit rate : 2 801 Kbps\nVideo #1\nCodec ID : 20\nDuration : 1h 53mn\nBit rate mode : Variable\nBit rate : 2 480 Kbps\nWidth : 652 pixels\nHeight : 352 pixels\nDisplay aspect ratio : 1.852\nFrame rate mode : Constant\nFrame rate : 24.390 fps\nResolution : 24 bits\nColorimetry : 4:2:0\nScan type : Progressive\nBits/(Pixel*Frame) : 0.443\nStream size : 1.97 GiB (89%)\nAudio #2\nID : 2\nFormat : AAC\nFormat/Info : Advanced Audio Codec\nFormat version : Version 4\nFormat profile : LC\nFormat settings, SBR : No\nCodec ID : 40\nDuration : 1h 53mn\nBit rate mode : Variable\nBit rate : 320 Kbps\nChannel(s) : 6 channels\nChannel positions : Front: L C R, Rear: L R, LFE\nSampling rate : 48.0 KHz\nResolution : 16 bits\nStream size : 258 MiB (11%)\n","torrent":{"xt":"urn:btih:f3767eaa9d304aa2523478697767682ceb9aaab7","amp;dn":"Get+Him+To+The+Greek+2010+Unrated+BRRip+H264+Feel-Free","amp;tr":["udp%3A%2F%2Ftracker.openbittorrent.com%3A80","udp%3A%2F%2Fopen.demonii.com%3A1337","udp%3A%2F%2Ftracker.coppersurfer.tk%3A6969","udp%3A%2F%2Fexodus.desync.com%3A6969"],"infoHash":"f3767eaa9d304aa2523478697767682ceb9aaab7","infoHashBuffer":{"type":"Buffer","data":[243,118,126,170,157,48,74,162,82,52,120,105,119,103,104,44,235,154,170,183]},"announce":[],"urlList":[]}}